<?xml version="1.0" standalone="no"?>
<!DOCTYPE svg PUBLIC "-//W3C//DTD SVG 20010904//EN"
 "http://www.w3.org/TR/2001/REC-SVG-20010904/DTD/svg10.dtd">
<svg version="1.0" xmlns="http://www.w3.org/2000/svg"
 width="1480.000000pt" height="1480.000000pt" viewBox="0 0 1480.000000 1480.000000"
 preserveAspectRatio="xMidYMid meet">
<metadata>
Created by potrace 1.11, written by Peter Selinger 2001-2013
</metadata>
<g transform="translate(0.000000,1480.000000) scale(0.100000,-0.100000)"
fill="#000000" stroke="none">
<path d="M2100 12341 c0 -4 -15 -7 -32 -7 -40 -1 -64 -6 -163 -33 -212 -59
-393 -198 -476 -366 -106 -217 -121 -471 -39 -680 85 -220 263 -391 458 -440
88 -22 111 -25 187 -25 88 0 152 9 239 31 l48 12 217 -219 c205 -208 339 -351
446 -474 26 -30 62 -71 79 -90 56 -62 230 -272 315 -380 113 -145 116 -149
158 -205 21 -27 41 -51 46 -53 4 -2 7 -9 7 -14 0 -6 7 -18 15 -27 20 -21 81
-107 179 -250 l78 -114 -8 -76 c-3 -42 -8 -92 -10 -111 -2 -19 -6 -60 -9 -90
-3 -30 -7 -80 -10 -110 -3 -30 -7 -80 -10 -110 -3 -30 -7 -86 -10 -124 -3 -38
-7 -87 -10 -110 -2 -22 -7 -90 -10 -151 -3 -60 -8 -130 -10 -155 -2 -25 -7
-106 -10 -180 -4 -74 -8 -160 -10 -190 -16 -258 -24 -1122 -13 -1367 3 -56 2
-106 -1 -110 -22 -31 -534 -383 -556 -383 -4 0 -19 -8 -33 -19 -43 -30 -168
-98 -282 -152 -128 -62 -134 -65 -277 -120 -19 -7 -27 -3 -45 22 -27 36 -110
91 -158 105 -33 10 -146 10 -180 1 -8 -2 -32 -7 -52 -12 -21 -4 -38 -10 -38
-14 0 -3 -14 -12 -32 -20 -48 -22 -171 -149 -196 -204 -68 -147 -89 -265 -66
-377 4 -19 8 -42 10 -50 6 -33 60 -148 88 -190 43 -63 113 -128 166 -153 35
-17 63 -22 130 -22 74 0 93 4 145 29 82 40 178 139 237 246 56 103 80 180 84
278 1 41 4 75 6 76 2 2 53 42 113 90 61 48 117 92 125 99 35 27 136 103 156
117 12 8 67 46 121 85 54 38 125 87 158 109 33 21 77 50 99 65 21 14 46 30 56
36 11 5 45 25 77 44 32 19 81 47 109 62 50 27 50 27 51 6 0 -28 12 -152 18
-197 2 -19 7 -57 10 -85 8 -71 34 -255 41 -286 4 -22 -6 -34 -77 -95 -45 -38
-91 -78 -103 -89 -13 -11 -47 -40 -76 -65 -30 -25 -70 -59 -89 -76 -20 -17
-142 -117 -271 -223 -283 -231 -256 -210 -305 -246 -22 -17 -45 -34 -51 -40
-6 -5 -55 -44 -109 -85 -54 -41 -105 -82 -114 -90 -9 -8 -32 -26 -51 -40 -19
-13 -37 -27 -40 -30 -3 -3 -30 -23 -60 -45 -30 -22 -57 -42 -60 -45 -3 -3 -43
-34 -90 -69 -127 -93 -130 -95 -203 -150 -57 -43 -69 -48 -73 -33 -41 127
-160 388 -217 479 -15 24 -27 45 -27 48 0 7 -68 103 -114 160 -178 219 -378
312 -581 269 -177 -37 -359 -226 -443 -459 -30 -85 -70 -223 -77 -270 -15 -94
-17 -116 -19 -222 -3 -159 13 -321 50 -488 9 -38 17 -77 19 -85 2 -8 8 -35 15
-60 7 -25 13 -49 14 -55 1 -5 4 -14 7 -20 5 -8 19 -59 21 -75 1 -4 26 -72 58
-155 6 -16 12 -32 12 -35 1 -3 12 -23 26 -44 13 -22 25 -44 26 -50 1 -6 9 -22
18 -36 103 -163 101 -160 183 -244 192 -199 406 -238 632 -116 177 95 296 213
401 398 56 99 103 214 116 287 3 17 8 41 12 55 3 14 7 77 9 141 l3 116 42 59
c89 119 202 247 356 399 109 107 159 154 298 275 23 19 46 40 52 45 6 6 25 21
43 35 18 14 40 32 49 41 53 49 430 335 567 430 28 19 52 36 55 39 12 12 250
170 263 176 10 3 18 -3 23 -18 16 -53 149 -199 223 -246 14 -9 28 -19 31 -23
3 -4 44 -27 91 -53 128 -69 301 -128 439 -151 25 -4 52 -9 60 -10 125 -22 221
-28 415 -28 206 0 357 11 535 38 14 2 45 7 70 10 25 3 52 8 60 10 8 2 35 7 60
10 44 6 148 27 240 49 14 3 36 8 50 10 14 3 88 21 165 41 77 20 145 38 150 39
47 10 181 56 280 94 120 46 436 201 466 228 8 8 19 14 23 14 12 0 187 119 273
186 215 168 393 375 509 593 13 24 29 50 35 57 6 8 8 14 4 14 -4 0 0 10 8 23
8 13 22 43 30 68 9 24 21 43 27 41 7 -1 49 -5 94 -8 44 -2 101 -7 126 -9 25
-3 83 -7 130 -10 47 -3 105 -8 130 -10 50 -5 151 -14 220 -20 79 -6 184 -16
225 -21 22 -3 56 -7 75 -9 19 -1 67 -6 105 -9 90 -9 148 -15 210 -22 28 -3 66
-7 85 -9 47 -4 137 -14 181 -21 20 -3 56 -7 80 -9 71 -6 320 -36 459 -56 41
-6 89 -12 106 -14 18 -2 52 -6 78 -9 25 -3 74 -10 108 -15 35 -6 86 -13 113
-16 28 -3 61 -8 75 -11 14 -2 34 -6 46 -8 12 -2 45 -8 75 -11 82 -11 105 -15
259 -40 123 -20 139 -23 205 -35 33 -6 76 -13 95 -15 19 -3 46 -8 60 -11 14
-3 36 -8 50 -10 14 -2 34 -6 46 -9 12 -3 39 -7 60 -11 21 -3 59 -10 84 -16 25
-5 59 -12 75 -14 17 -3 37 -7 45 -10 8 -3 29 -8 45 -11 17 -2 59 -11 95 -19
36 -9 74 -17 85 -19 53 -10 121 -26 235 -55 69 -18 133 -33 143 -35 59 -12 87
-30 88 -55 0 -14 2 -32 4 -40 2 -8 6 -24 8 -35 15 -64 21 -81 30 -93 5 -6 7
-12 4 -12 -12 0 47 -125 84 -180 117 -174 264 -238 469 -205 30 5 57 9 60 10
3 0 11 4 17 8 7 5 13 6 13 2 0 -8 130 59 193 99 150 96 299 242 415 406 26 36
49 67 53 70 26 20 163 296 184 373 2 4 4 9 5 12 1 3 3 8 5 13 1 4 4 14 8 22 5
14 27 90 33 115 1 6 7 28 12 50 11 39 15 61 27 139 4 21 8 46 10 56 17 86 23
361 11 460 -3 25 -8 68 -11 95 -9 71 -23 122 -53 185 -97 204 -275 301 -487
265 -27 -5 -52 -9 -55 -10 -3 -1 -25 -7 -50 -14 -50 -13 -113 -42 -118 -53 -2
-5 -9 -8 -15 -8 -17 0 -140 -83 -207 -139 -123 -103 -235 -230 -324 -368 -51
-79 -196 -371 -196 -395 0 -8 -4 -18 -9 -23 -7 -9 -28 -64 -37 -100 -2 -5 -14
-48 -27 -95 l-24 -85 -34 1 c-19 1 -77 4 -129 8 -52 4 -115 9 -140 10 -25 2
-72 6 -105 10 -90 10 -143 15 -215 21 -66 6 -101 9 -200 20 -30 3 -73 8 -95
10 -51 5 -119 13 -170 19 -85 10 -241 28 -270 31 -16 2 -48 5 -70 8 -22 3 -67
9 -100 12 -33 3 -67 8 -75 10 -8 2 -42 7 -75 10 -33 3 -78 8 -100 11 -22 3
-53 7 -70 8 -92 11 -149 18 -168 22 -12 2 -44 7 -72 10 -27 3 -61 7 -75 9 -35
5 -107 14 -160 20 -25 3 -56 8 -70 10 -14 2 -45 7 -70 9 -25 3 -56 7 -70 10
-14 2 -47 7 -75 10 -27 3 -61 8 -75 10 -22 4 -46 7 -157 22 -18 2 -48 6 -65 9
-89 12 -107 14 -153 20 -27 3 -57 8 -65 10 -15 4 -87 14 -145 20 -16 2 -42 6
-56 8 -15 3 -53 8 -85 12 -56 6 -71 9 -126 19 -13 3 -45 7 -73 10 -27 4 -61 9
-75 11 -24 5 -58 10 -140 21 -19 2 -51 7 -70 10 -19 3 -46 7 -60 9 -14 1 -56
7 -95 14 -38 6 -86 13 -105 16 -19 2 -46 6 -60 9 -14 3 -45 7 -70 10 -129 14
-128 14 -140 65 -6 25 -13 55 -16 66 -5 17 6 24 83 50 48 16 90 30 93 30 3 0
10 3 15 6 8 5 201 68 228 75 4 1 9 3 12 4 3 1 8 3 13 4 18 5 192 60 247 78 33
11 67 22 75 23 8 2 76 22 150 45 119 36 287 85 330 96 17 4 365 103 475 134
39 11 79 22 90 25 11 2 97 25 190 50 94 25 179 47 190 50 11 2 56 13 100 25
44 12 114 30 155 41 41 11 84 21 95 24 11 2 40 9 65 15 25 7 52 13 60 15 57
13 150 37 175 45 17 5 41 11 55 14 35 8 121 28 300 71 85 20 160 38 165 39 6
2 21 6 35 9 77 20 209 50 235 54 17 2 37 6 45 9 8 4 55 15 105 25 l90 19 20
-27 c42 -58 78 -93 126 -122 27 -17 49 -28 49 -26 0 3 8 1 19 -4 32 -17 136
-20 204 -6 122 25 194 74 279 188 99 135 125 223 108 375 -21 191 -168 333
-345 333 -123 0 -212 -28 -303 -95 -51 -38 -122 -124 -122 -148 0 -5 -11 -33
-25 -63 -29 -60 -36 -87 -36 -127 0 -32 -5 -36 -72 -55 -118 -33 -163 -45
-172 -48 -5 -1 -17 -4 -25 -7 -8 -3 -51 -15 -95 -27 -44 -12 -141 -37 -215
-57 -74 -20 -142 -37 -150 -39 -8 -2 -98 -24 -200 -50 -102 -26 -192 -48 -200
-50 -8 -2 -62 -14 -120 -28 -141 -34 -319 -75 -350 -82 -14 -2 -54 -12 -90
-20 -67 -16 -88 -21 -130 -29 -14 -3 -43 -10 -64 -15 -22 -5 -43 -8 -47 -5 -4
2 -10 0 -14 -5 -3 -5 -13 -10 -23 -10 -9 0 -48 -7 -87 -16 -38 -9 -81 -18 -95
-20 -14 -2 -34 -6 -45 -8 -56 -14 -72 -17 -95 -21 -14 -2 -36 -7 -50 -10 -14
-3 -36 -8 -50 -10 -14 -3 -36 -7 -50 -10 -45 -10 -74 -16 -110 -21 -19 -4 -54
-10 -76 -15 -23 -5 -56 -12 -75 -14 -19 -3 -70 -12 -114 -20 -44 -9 -91 -18
-105 -20 -14 -3 -25 -5 -25 -6 0 -1 -11 -3 -25 -4 -38 -4 -110 -16 -157 -27
-24 -5 -46 -9 -50 -8 -5 1 -10 0 -13 -1 -3 -1 -14 -3 -25 -4 -11 -2 -36 -6
-55 -9 -44 -8 -212 -34 -265 -42 -22 -3 -53 -7 -70 -10 -58 -9 -110 -16 -145
-21 -19 -2 -48 -6 -65 -8 -16 -3 -57 -8 -90 -11 -33 -4 -63 -9 -67 -11 -11 -7
-38 7 -38 19 0 7 -9 34 -20 62 -155 398 -236 592 -326 784 -24 51 -44 95 -44
97 0 7 -181 368 -245 489 -82 155 -228 413 -297 523 -32 51 -58 95 -58 97 0 5
-87 138 -99 152 -6 7 -11 15 -11 18 0 8 -159 239 -257 374 -85 117 -258 337
-279 356 -30 27 -31 48 -7 159 30 138 50 207 110 368 l47 127 70 -3 c149 -7
296 57 423 182 46 44 103 115 103 126 0 3 15 31 34 63 104 178 106 375 5 576
-33 66 -35 68 -107 147 -110 120 -305 181 -467 145 -16 -3 -43 -8 -58 -11 -48
-9 -160 -58 -212 -93 -104 -70 -211 -211 -229 -301 -2 -14 -11 -41 -19 -60
-26 -61 -34 -145 -23 -245 20 -186 142 -374 291 -451 l56 -29 -5 -43 c-3 -23
-7 -46 -10 -50 -3 -5 -7 -20 -10 -35 -2 -14 -14 -61 -26 -104 -12 -43 -23 -82
-24 -88 -2 -5 -5 -17 -8 -25 -46 -127 -64 -170 -69 -170 -3 0 -15 12 -25 26
-10 14 -23 31 -29 38 -5 6 -44 51 -85 100 -139 166 -380 415 -520 538 -95 84
-280 226 -317 243 -18 9 -35 20 -38 25 -9 15 -182 98 -247 120 -239 78 -419
17 -586 -200 -15 -19 -29 -37 -33 -40 -15 -13 -142 -252 -154 -289 -4 -13 -14
-40 -23 -60 -9 -20 -17 -40 -18 -46 -1 -5 -18 -59 -38 -118 -51 -154 -87 -293
-131 -508 -2 -9 -6 -34 -9 -55 -4 -22 -11 -66 -16 -99 -6 -33 -13 -85 -16
-115 -4 -30 -8 -57 -10 -59 -6 -6 -523 515 -650 654 -161 175 -233 257 -309
349 -22 27 -45 54 -50 60 -6 6 -28 34 -50 61 -22 28 -42 52 -45 55 -10 9 -166
223 -194 266 l-27 41 39 59 c52 80 152 294 137 294 -3 0 -2 8 4 18 19 37 30
205 16 266 -3 11 -7 32 -9 46 -11 59 -38 145 -46 148 -6 2 -10 10 -10 18 0 23
-64 124 -125 198 -41 49 -121 115 -186 153 -47 27 -152 60 -214 68 -95 11
-125 12 -125 6z m2429 -2937 c72 -41 132 -113 282 -339 77 -115 144 -215 149
-222 6 -7 10 -14 10 -17 0 -2 45 -74 100 -161 55 -86 100 -160 100 -165 0 -6
5 -10 10 -10 6 0 10 -4 10 -10 0 -5 31 -58 69 -119 93 -146 326 -547 438 -751
206 -375 380 -766 408 -915 9 -47 6 -167 -4 -203 -5 -18 -10 -36 -10 -40 -6
-49 -89 -172 -175 -256 -71 -69 -211 -172 -271 -198 -16 -7 -36 -18 -43 -25
-7 -7 -21 -13 -29 -13 -9 0 -24 -6 -32 -13 -34 -28 -266 -110 -346 -122 -16
-2 -51 -8 -76 -13 -25 -5 -100 -8 -165 -7 -202 4 -344 56 -460 170 -33 33 -77
88 -97 122 -38 66 -83 198 -92 271 -3 24 -7 53 -10 65 -2 12 -7 47 -10 77 -3
30 -7 69 -9 85 -2 17 -7 68 -11 115 -4 47 -8 101 -10 120 -27 274 -27 1194 0
1540 2 30 7 91 10 135 3 44 8 96 11 115 2 19 6 64 9 100 5 62 10 103 20 180 3
19 7 62 10 95 3 33 7 71 10 85 3 14 7 50 10 80 12 118 35 212 59 236 15 14 54
31 80 33 5 1 30 -11 55 -25z m9258 -2789 c118 -35 172 -166 167 -405 -2 -123
-9 -219 -20 -272 -3 -15 -7 -40 -9 -57 -2 -16 -9 -49 -15 -73 -7 -24 -14 -50
-15 -58 -8 -37 -50 -150 -76 -208 -29 -65 -139 -237 -181 -283 -107 -119 -164
-168 -241 -203 -61 -28 -143 -24 -193 9 -39 25 -101 111 -118 162 -44 134 -40
336 10 548 8 33 17 71 20 85 22 109 125 343 209 474 63 98 229 248 295 265 8
2 38 10 65 17 28 7 50 13 51 13 0 1 23 -6 51 -14z m-12569 -2400 c80 -37 208
-170 311 -324 46 -69 87 -134 92 -145 5 -12 13 -28 19 -36 14 -23 47 -99 65
-152 47 -142 60 -335 35 -515 -13 -89 -17 -114 -20 -123 -1 -3 -3 -9 -4 -15
-6 -38 -30 -116 -37 -121 -5 -3 -7 -10 -4 -15 4 -5 3 -9 -2 -9 -4 0 -15 -15
-22 -32 -22 -49 -110 -132 -154 -145 -59 -18 -124 -6 -217 39 -103 49 -190
120 -257 209 -62 83 -130 220 -149 302 -1 4 -2 9 -3 12 0 3 -1 8 -2 13 -1 4
-5 14 -9 22 -4 8 -11 33 -14 54 -4 21 -9 48 -11 60 -13 54 -17 105 -20 281 -2
105 0 210 5 235 5 25 12 56 14 69 10 44 57 183 78 228 25 54 97 118 146 131
51 13 94 7 160 -23z"/>
</g>
</svg>
