<?xml version="1.0" encoding="iso-8859-1"?>
<!-- Generator: Adobe Illustrator 19.0.0, SVG Export Plug-In . SVG Version: 6.00 Build 0)  -->
<svg version="1.1" id="Layer_1" xmlns="http://www.w3.org/2000/svg" xmlns:xlink="http://www.w3.org/1999/xlink" x="0px" y="0px"
	 viewBox="0 0 512.043 512.043" style="enable-background:new 0 0 512.043 512.043;" xml:space="preserve">
<g transform="translate(0 -1)">
	<g>
		<g>
			<path d="M368.936,241.958L256.021,354.873L143.106,241.958c-13.439-13.439-36.418-3.921-36.418,15.085v108.139
				c0,5.701,2.282,11.164,6.336,15.172l128,126.528c8.311,8.215,21.684,8.215,29.995,0l128-126.528
				c4.054-4.008,6.336-9.471,6.336-15.172V257.043C405.355,238.037,382.376,228.519,368.936,241.958z M362.688,356.272
				l-106.667,105.44l-106.667-105.44v-47.727l91.582,91.582c8.331,8.331,21.839,8.331,30.17,0l91.582-91.582V356.272z"/>
			<path d="M368.936,7.291L256.021,120.206L143.106,7.291c-13.439-13.439-36.418-3.921-36.418,15.085v108.139
				c0,5.701,2.282,11.164,6.336,15.172l128,126.528c8.311,8.215,21.684,8.215,29.995,0l128-126.528
				c4.054-4.008,6.336-9.471,6.336-15.172V22.376C405.355,3.37,382.376-6.148,368.936,7.291z M362.688,121.606l-106.667,105.44
				l-106.667-105.44V73.879l91.582,91.582c8.331,8.331,21.839,8.331,30.17,0l91.582-91.582V121.606z"/>
		</g>
	</g>
</g>
<g>
</g>
<g>
</g>
<g>
</g>
<g>
</g>
<g>
</g>
<g>
</g>
<g>
</g>
<g>
</g>
<g>
</g>
<g>
</g>
<g>
</g>
<g>
</g>
<g>
</g>
<g>
</g>
<g>
</g>
</svg>
